<svg width="720" height="175" viewBox="0 0 720 175" fill="none" xmlns="http://www.w3.org/2000/svg">
<path fill-rule="evenodd" clip-rule="evenodd" d="M315.136 8.24243H283.89C283.89 25.4993 297.879 39.4888 315.136 39.4888C297.879 39.4888 283.89 53.4783 283.89 70.7352C283.89 87.9921 297.879 101.982 315.136 101.982C332.393 101.982 346.382 87.9921 346.382 70.7352V101.982H377.629V70.7352V39.4888C377.629 22.2319 363.639 8.24243 346.382 8.24243H315.136ZM315.136 70.7352H346.382V39.4888H315.136V70.7352Z" fill="black"/>
<path fill-rule="evenodd" clip-rule="evenodd" d="M565.91 8.24243H534.664C534.664 25.4993 548.653 39.4888 565.91 39.4888C565.91 56.7457 579.9 70.7352 597.157 70.7352C579.9 70.7352 565.91 84.7247 565.91 101.982H597.157C614.413 101.982 628.403 87.9921 628.403 70.7352V39.4888V8.24243C611.146 8.24243 597.157 22.2319 597.157 39.4888H565.91V8.24243Z" fill="black"/>
<path fill-rule="evenodd" clip-rule="evenodd" d="M59.6774 8.24243H90.9238H122.17C122.17 25.4993 108.181 39.4888 90.9238 39.4888V70.7352V101.982H59.6774V70.7352V39.4888V8.24243ZM122.17 8.24243V39.4888H153.417V8.24243H122.17Z" fill="black"/>
<path d="M398.952 54.6952C400.469 49.6937 403.218 45.3204 407.201 41.5752C411.183 37.83 415.947 35.9574 421.494 35.9574C426.732 35.9574 430.762 37.5574 433.583 40.7574C436.427 43.9574 437.849 47.9396 437.849 52.7041C437.849 59.1989 435.586 65.2907 431.058 70.9796C426.555 76.6685 420.854 79.5129 413.956 79.5129C408.883 79.5129 404.901 77.9366 402.009 74.784C399.118 71.6077 397.672 67.9929 397.672 63.9396C397.672 62.2092 397.885 60.0403 398.312 57.4329H397.423C395.574 57.4329 392.966 57.587 389.601 57.8952C387.325 66.9974 384.67 73.0892 381.636 76.1707C378.626 79.2522 375.568 80.7929 372.463 80.7929C370.756 80.7929 369.227 80.4136 367.876 79.6551C366.549 78.9203 365.885 77.9959 365.885 76.8818C365.885 76.2655 366.086 75.7559 366.489 75.3529C366.916 74.9499 367.402 74.7485 367.947 74.7485C368.872 74.7485 369.82 75.4003 370.792 76.704C371.716 77.9366 372.605 78.5529 373.458 78.5529C375.449 78.5529 377.239 76.9529 378.827 73.7529C380.439 70.5529 382.762 63.2759 385.796 51.9218L389.281 38.9085C384.587 38.9559 381.032 39.7381 378.614 41.2552C376.22 42.7722 375.023 44.5381 375.023 46.553C375.023 47.2167 375.343 48.0581 375.983 49.0774C376.552 50.0255 376.836 50.7959 376.836 51.3885C376.836 52.0285 376.623 52.5855 376.196 53.0596C375.769 53.51 375.212 53.7352 374.525 53.7352C373.672 53.7352 372.949 53.3322 372.356 52.5263C371.787 51.6966 371.503 50.547 371.503 49.0774C371.503 46.7307 372.202 44.6448 373.601 42.8196C375.023 40.9707 376.765 39.6078 378.827 38.7307C380.913 37.8537 382.881 37.273 384.729 36.9885C386.578 36.7041 390.406 36.5619 396.214 36.5619C394.578 39.5485 392.623 45.6641 390.347 54.9085H394.721L398.952 54.6952ZM404.143 60.6329C404.143 65.824 405.292 69.8418 407.592 72.6863C409.891 75.507 412.747 76.9174 416.16 76.9174C420.593 76.9174 424.22 74.7603 427.04 70.4463C429.885 66.1322 431.307 60.6566 431.307 54.0196C431.307 49.0181 430.158 45.19 427.858 42.5352C425.559 39.8804 422.798 38.553 419.574 38.553C415.07 38.553 411.372 40.5559 408.481 44.5618C405.589 48.5441 404.143 53.9011 404.143 60.6329Z" fill="black"/>
<path d="M699.684 54.6027H713.519L720 79.7248H693.785L691.965 60.2096L689.781 79.7248H663.566L669.61 54.6027H683.955L670.557 52.4181L665.241 28.7524H689.853L691.965 47.685L694.295 28.7524H717.306L712.718 52.4181L699.684 54.6027Z" fill="black"/>
<path d="M286.473 136.79C286.4 138.756 285.453 139.484 282.832 141.96C281.084 143.708 279.846 144.363 279.774 146.548C279.701 148.004 280.72 149.46 283.05 149.97C286.91 150.844 290.696 152.009 293.609 152.81C294.92 153.247 296.303 154.412 296.303 156.305C296.303 157.98 296.376 163.005 296.303 166.281C296.23 168.175 294.774 169.558 293.026 169.558C290.915 169.558 290.041 168.102 289.677 167.01C288.949 164.825 288.876 154.048 283.633 153.029C281.375 152.664 278.827 155.796 277.88 157.034C275.623 159.946 273.293 159.728 273.293 159.728C273.293 159.728 255.816 159.728 253.778 159.728C252.321 159.728 251.52 158.927 251.011 158.344C250.428 157.689 243.292 150.771 242.054 149.606C241.035 148.659 240.598 147.203 240.525 146.038C240.452 144.436 240.598 128.999 240.598 126.887C240.598 126.159 240.889 125.285 241.399 124.702C242.127 123.829 243.001 123.537 243.802 123.537C246.059 123.537 251.011 123.537 253.778 123.537C255.452 123.537 256.181 124.557 256.69 125.431C257.2 126.159 257.346 127.761 256.545 128.926C255.816 129.873 251.156 133.877 250.574 135.552C250.21 136.79 250.21 139.339 250.137 141.669C250.064 145.091 250.282 145.82 250.428 146.912C250.501 147.931 251.302 149.97 253.778 149.97C255.088 149.97 256.035 149.46 256.909 147.786C258.948 143.781 259.967 136.062 260.768 134.897C261.278 134.169 262.297 133.441 263.535 133.441C265.356 133.513 266.302 134.678 266.594 135.334C267.176 136.499 269.579 146.111 270.38 148.004C270.89 149.533 272.71 150.334 274.531 149.752C275.914 149.315 277.516 147.13 276.351 145.019C275.841 143.999 274.968 143.198 273.875 142.106C272.637 140.868 271.764 140.213 270.744 139.048C270.089 138.319 269.288 135.771 271.035 134.314C273.366 132.275 278.681 126.596 280.065 125.139C281.23 123.974 281.74 123.61 283.123 123.537C284.725 123.392 286.4 124.994 286.473 126.596C286.546 128.416 286.618 129.363 286.473 136.79Z" fill="black"/>
<path d="M192.511 82.1847L186.424 84.7479C185.949 83.2052 185.308 81.7931 184.501 80.5115C183.718 79.2299 182.769 78.1382 181.653 77.2363C180.561 76.3107 179.315 75.5987 177.915 75.1003C176.515 74.5782 174.984 74.3172 173.323 74.3172C171.543 74.3172 169.905 74.6138 168.41 75.2071C166.939 75.7767 165.61 76.5718 164.423 77.5923C163.26 78.6129 162.239 79.7995 161.361 81.1523C160.483 82.5051 159.747 83.9528 159.154 85.4955C158.561 87.0144 158.122 88.5926 157.837 90.2302C157.552 91.8678 157.41 93.4698 157.41 95.0362C157.41 97.5282 157.695 100.008 158.264 102.477C158.857 104.945 159.783 107.164 161.041 109.134C162.323 111.104 163.972 112.706 165.989 113.94C168.007 115.15 170.451 115.755 173.323 115.755C174.842 115.755 176.278 115.506 177.63 115.008C178.983 114.486 180.205 113.785 181.297 112.907C182.413 112.005 183.386 110.949 184.216 109.739C185.047 108.528 185.712 107.223 186.21 105.823L192.369 108.279C191.467 110.534 190.233 112.516 188.666 114.224C187.1 115.909 185.308 117.31 183.291 118.425C181.297 119.541 179.149 120.371 176.847 120.917C174.569 121.487 172.267 121.772 169.941 121.772C167.425 121.772 165.004 121.463 162.679 120.846C160.376 120.229 158.229 119.351 156.235 118.212C154.241 117.072 152.426 115.696 150.788 114.082C149.174 112.468 147.786 110.676 146.623 108.706C145.484 106.737 144.594 104.601 143.953 102.299C143.336 99.9727 143.027 97.5519 143.027 95.0362C143.027 92.5205 143.336 90.1116 143.953 87.8094C144.594 85.4836 145.484 83.3357 146.623 81.3659C147.786 79.3723 149.174 77.5686 150.788 75.9547C152.426 74.3409 154.241 72.9644 156.235 71.8252C158.229 70.686 160.376 69.8079 162.679 69.1908C165.004 68.5737 167.425 68.2652 169.941 68.2652C172.362 68.2652 174.723 68.55 177.025 69.1196C179.351 69.6892 181.511 70.5554 183.504 71.7184C185.498 72.8576 187.266 74.3053 188.809 76.0615C190.375 77.7941 191.609 79.8351 192.511 82.1847Z" fill="black"/>
<path d="M624.9 174.253C623.539 174.253 622.372 173.816 621.4 172.941C620.477 172.017 619.869 170.535 619.578 168.494C619.335 166.404 619.213 160.206 619.213 149.902C619.213 139.549 619.383 132.793 619.723 129.633C620.112 125.551 621.838 123.461 624.9 123.363C628.399 123.266 642.908 123.218 668.426 123.218C671.294 123.218 672.728 125.04 672.728 128.686C672.728 131.553 671.464 132.987 668.936 132.987H652.897C651.876 132.987 651.05 133.327 650.418 134.008C649.834 134.688 649.543 135.563 649.543 136.633V141.882C649.543 143.34 650.199 144.069 651.511 144.069H664.781C665.558 144.069 666.142 144.142 666.53 144.288C666.968 144.434 667.357 144.871 667.697 145.6C668.037 146.281 668.207 147.423 668.207 149.027C668.207 150.631 667.916 151.7 667.332 152.235C666.798 152.77 665.899 153.037 664.635 153.037H652.751C651.536 153.037 650.685 153.353 650.199 153.985C649.762 154.568 649.543 155.492 649.543 156.755V160.328C649.543 162.418 650.539 163.463 652.532 163.463H670.686C671.561 163.463 672.339 163.73 673.019 164.265C673.7 164.751 674.04 165.869 674.04 167.619C674.04 169.32 673.627 170.851 672.801 172.212C671.974 173.573 671.002 174.253 669.884 174.253H624.9Z" fill="black"/>
<path d="M223.573 41.1456C222.977 41.6221 222.143 42.039 221.071 42.3964C220.058 42.7537 218.897 42.9324 217.587 42.9324C215.859 42.9324 214.4 42.7239 213.209 42.307C212.077 41.8305 211.333 41.0562 210.975 39.9841C208.772 34.1472 206.896 29.2036 205.347 25.1534C203.798 21.1033 202.577 17.6488 201.684 14.7898H201.237C201.059 18.6613 200.91 22.235 200.791 25.5108C200.671 28.7271 200.552 31.8541 200.433 34.8917C200.314 37.9293 200.195 41.0264 200.076 44.1832C199.957 47.3399 199.778 50.7647 199.54 54.4574C198.944 54.6957 198.14 54.9042 197.128 55.0828C196.115 55.2615 195.102 55.3509 194.09 55.3509C191.946 55.3509 190.308 54.9935 189.176 54.2788C188.044 53.564 187.479 52.3132 187.479 50.5264C187.479 49.3352 187.538 47.459 187.657 44.8979C187.776 42.2772 187.925 39.2694 188.104 35.8744C188.342 32.4199 188.581 28.7867 188.819 24.9748C189.057 21.1033 189.295 17.3212 189.533 13.6284C189.831 9.87605 190.099 6.42152 190.338 3.26478C190.814 2.60961 191.707 1.95444 193.018 1.29927C194.388 0.584539 196.234 0.227173 198.557 0.227173C201.059 0.227173 203.054 0.644099 204.543 1.47795C206.032 2.25225 207.134 3.56259 207.848 5.40898C208.861 7.73186 209.903 10.3525 210.975 13.271C212.107 16.1895 213.179 19.1676 214.192 22.2052C215.264 25.1832 216.276 27.8932 217.229 30.3353H217.587C219.493 24.9152 221.369 19.6441 223.215 14.5218C225.062 9.39956 226.67 5.08139 228.04 1.56729C228.814 1.15037 229.797 0.822781 230.988 0.58454C232.239 0.346296 233.519 0.227173 234.83 0.227173C237.212 0.227173 239.118 0.584539 240.547 1.29927C242.037 2.014 242.93 3.05632 243.228 4.42622C243.466 5.55788 243.704 7.34471 243.942 9.78671C244.24 12.2287 244.538 15.0579 244.836 18.2742C245.134 21.4904 245.431 24.8556 245.729 28.3697C246.027 31.8243 246.295 35.2193 246.533 38.5547C246.772 41.8901 246.98 44.8979 247.159 47.5782C247.397 50.2584 247.546 52.3728 247.605 53.9214C246.772 54.3979 245.878 54.7552 244.925 54.9935C244.032 55.2317 242.9 55.3509 241.53 55.3509C239.743 55.3509 238.225 55.0233 236.974 54.3681C235.723 53.7129 235.038 52.4622 234.919 50.6158C234.681 45.7318 234.442 41.086 234.204 36.6785C234.026 32.2114 233.877 28.1613 233.758 24.5281C233.638 20.8353 233.519 17.7083 233.4 15.1472H232.953C232.12 17.8274 230.928 21.2224 229.38 25.3321C227.831 29.4418 225.895 34.713 223.573 41.1456Z" fill="black"/>
<path d="M528.263 71.5211V38.1552C528.263 35.5553 529.058 33.485 530.646 31.9443C532.235 30.3554 534.354 29.561 537.002 29.561C539.602 29.561 541.672 30.3554 543.213 31.9443C544.802 33.485 545.596 35.5553 545.596 38.1552V71.5211C545.596 74.1211 544.802 76.2155 543.213 77.8043C541.624 79.345 539.505 80.1154 536.857 80.1154C534.257 80.1154 532.163 79.345 530.574 77.8043C529.033 76.2155 528.263 74.1211 528.263 71.5211ZM490.347 71.16V38.1552C490.347 35.5553 491.142 33.485 492.731 31.9443C494.319 30.3554 496.438 29.561 499.086 29.561C501.686 29.561 503.756 30.3554 505.297 31.9443C506.886 33.485 507.68 35.5553 507.68 38.1552V49.6383H511.363C513.626 49.6383 515.673 49.9994 517.502 50.7216C519.38 51.4438 520.969 52.479 522.269 53.8271C523.617 55.1752 524.652 56.8122 525.374 58.7381C526.096 60.6158 526.458 62.7102 526.458 65.0213C526.458 67.2842 526.096 69.3545 525.374 71.2322C524.652 73.0618 523.617 74.6507 522.269 75.9988C520.969 77.2988 519.38 78.3099 517.502 79.0321C515.673 79.7543 513.626 80.1154 511.363 80.1154H499.303C496.606 80.1154 494.44 79.2969 492.803 77.6599C491.166 76.0229 490.347 73.8563 490.347 71.16ZM509.125 62.7824V54.6937H507.68V62.7824H509.125Z" fill="black"/>
<path d="M497.489 108.895V159.41H424.603V142.956L471.366 151.183L473.026 141.874L424.603 133.359V108.895H448.706L445.675 126.287L475.19 131.482L479.232 108.895H497.489Z" fill="black"/>
<path d="M0 138.942C0 124.725 9.02054 116.282 16.8143 116.571C24.6802 116.571 28.5049 122.705 31.2471 126.313C31.5358 126.602 31.8244 126.674 32.0409 126.674C32.5461 126.674 32.9791 126.169 32.9791 125.591C32.7626 116.643 26.4121 114.406 20.9276 113.973H49.7934C44.3089 114.406 38.1027 115.994 37.7419 124.725C37.5976 125.952 38.0306 126.674 38.6079 126.674C39.0409 126.674 39.6182 126.241 40.1955 125.447C40.4842 125.014 45.9686 116.21 55.2778 116.86C63.7211 117.076 72.3086 125.447 72.3086 139.519C72.3086 153.735 63.2881 162.179 55.4943 161.89C47.6284 161.89 43.8037 155.756 41.0615 152.148C40.7728 151.859 40.4842 151.715 40.1955 151.715C39.6903 151.715 39.2574 152.22 39.3295 152.797C39.546 161.746 43.7316 163.911 51.381 164.488H22.5153C30.1647 163.911 34.2059 162.467 34.5667 153.735C34.711 152.509 34.278 151.787 33.7007 151.787C33.2677 151.787 32.6904 152.22 32.1131 153.014C31.8244 153.447 26.34 162.251 17.0308 161.601C8.58755 161.385 0 153.014 0 138.942ZM58.4531 159.869C65.886 156.766 67.3293 147.024 65.3087 139.23C63.3602 130.354 55.35 122.055 48.5666 122.055C46.4738 122.055 44.4532 122.849 42.7934 124.725C39.546 128.839 38.7522 131.653 35.2883 131.653C32.7626 131.653 31.3193 129.344 30.3812 128.189C27.6389 124.653 24.3194 118.158 17.1751 118.158C16.1648 118.158 15.0823 118.303 13.8555 118.591C6.42262 121.695 4.97934 131.437 6.99994 139.23C8.94837 148.107 16.9586 156.406 23.742 156.406C25.8348 156.406 27.8554 155.612 29.5152 153.735C32.7626 149.622 33.7729 146.519 37.3089 146.808C40.1955 146.808 40.9893 149.117 41.9274 150.272C44.6697 153.808 47.9892 160.302 55.1335 160.302C56.1438 160.302 57.2263 160.158 58.4531 159.869Z" fill="black"/>
</svg>
